<svg width="50" height="31" viewBox="0 0 50 31" fill="none" xmlns="http://www.w3.org/2000/svg">
<path d="M49.729 0.99974H48.879C47.828 0.99974 46.838 1.48974 46.199 2.32374L37.499 13.7007L28.799 2.32374C28.162 1.48974 27.171 0.99974 26.121 0.99974H25.271L36.242 15.3457L25.036 29.9997H25.886C26.937 29.9997 27.927 29.5097 28.565 28.6757L37.5 16.9917L46.435 28.6757C47.073 29.5097 48.063 29.9997 49.114 29.9997H49.964L38.758 15.3457L49.729 0.99974ZM21.289 24.2417C18.735 28.1227 13.707 30.1117 8.9 28.3577C4.671 26.8147 2 22.6107 2 18.1087V16.9997H14H25V12.8657C25 6.36074 20.182 0.66574 13.705 0.0567399C6.273 -0.64226 0 5.20974 0 12.4997V18.0727C0 23.4437 3.215 28.4367 8.269 30.2557C14.872 32.6317 21.817 29.0857 24.165 22.9997H23.527C22.616 22.9997 21.789 23.4807 21.289 24.2417ZM2 12.4997C2 6.70974 6.71 1.99974 12.5 1.99974C18.29 1.99974 23 6.70974 23 12.4997V14.9997H2V12.4997Z" fill="#F4F4F4"/>
</svg>
